# xmcd
#
# Track frame offsets:
#	150
#	3390
#	52136
#	54965
#	71890
#	174308
#	207813
#	215735
#	247342
#
# Disc length: 3486 seconds
#
# Revision: 1
# Processed by: cddbd v1.5.2PL0 Copyright (c) Steve Scherf et al.
# Submitted via: audiograbber 1.83.01
#
DISCID=880d9c09
DTITLE=Grateful Dead - 72-07-21 Paramount Northwest Theatre, Seattle WA
DYEAR=1900
DGENRE=
TTITLE0=Tuning
TTITLE1=Truckin'
TTITLE2=Drums
TTITLE3=Jam
TTITLE4=The Other One
TTITLE5=Comes A Time
TTITLE6=Tuning
TTITLE7=Sugar Magnolia
TTITLE8=Ramble On Rose
EXTD=
EXTT0=
EXTT1=
EXTT2=
EXTT3=
EXTT4=
EXTT5=
EXTT6=
EXTT7=
EXTT8=
PLAYORDER=
